<svg t="1610091946070" class="icon" viewBox="0 0 1189 1024" version="1.1" xmlns="http://www.w3.org/2000/svg" p-id="6358" width="128" height="128"><path d="M1090.05664711 0h-990.96621511c-54.70678282 0.06068148-99.03824592 44.39578548-99.09285925 99.09771378v660.63686163c0.06068148 54.7019283 44.38971733 99.03096415 99.08557747 99.09285926h462.454784v99.10378192h-165.1592154c-18.24206697 0.00364089-33.030144 14.79171792-33.030144 33.03378489s14.78807703 33.03257125 33.02893036 33.03378489h396.39206874c18.24206697-0.00364089 33.030144-14.79171792 33.030144-33.03378489s-14.78807703-33.03135763-33.02893037-33.03378489h-165.1592154v-99.09285926h462.44750222c54.70678282-0.06068148 99.03824592-44.39578548 99.09285926-99.09771378v-660.63686163c-0.05461333-54.70799645-44.38486282-99.04310045-99.08557748-99.10378192zM99.09285925 66.06999703h990.96621512c18.23842608 0.01334992 33.01922133 14.79535882 33.03378488 33.03257127v561.54278873h-1057.02286222v-561.54036148c0.01334992-18.23478518 14.78929067-33.01436682 33.01922134-33.03378488zM1090.05664711 792.77078755h-990.96621511c-18.23842608-0.01334992-33.01922133-14.79535882-33.03378489-33.03257125v-33.02407585h1057.02286222v33.03378488c-0.0206317 18.2311443-14.79171792 33.00223052-33.02164858 33.02286222z" fill="#d81e06" p-id="6359"></path></svg>