<svg t="1610112662863" class="icon" viewBox="0 0 1024 1024" version="1.1" xmlns="http://www.w3.org/2000/svg" p-id="844" width="128" height="128"><path d="M725.333333 426.666667H298.666667a128 128 0 0 0-128 128v256a128 128 0 0 0 128 128h426.666666a128 128 0 0 0 128-128v-256a128 128 0 0 0-128-128zM298.666667 512h426.666666a42.666667 42.666667 0 0 1 42.666667 42.666667v256a42.666667 42.666667 0 0 1-42.666667 42.666666H298.666667a42.666667 42.666667 0 0 1-42.666667-42.666666v-256a42.666667 42.666667 0 0 1 42.666667-42.666667z" fill="#8a8a8a" p-id="845"></path><path d="M512 597.333333a85.333333 85.333333 0 1 0 0 170.666667 85.333333 85.333333 0 0 0 0-170.666667zM512 85.333333a213.333333 213.333333 0 0 1 213.12 204.074667L725.333333 298.666667v170.666666a42.666667 42.666667 0 0 1-85.034666 4.992L640 469.333333V298.666667a128 128 0 0 0-255.786667-7.509334L384 298.666667v170.666666a42.666667 42.666667 0 0 1-85.034667 4.992L298.666667 469.333333V298.666667a213.333333 213.333333 0 0 1 213.333333-213.333334z" fill="#8a8a8a" p-id="846"></path></svg>