<svg t="1609813898972" class="icon" viewBox="0 0 1024 1024" version="1.1" xmlns="http://www.w3.org/2000/svg" p-id="1651" data-spm-anchor-id="a313x.7781069.0.i17" width="128" height="128"><path d="M506.1 960.1C258 960.1 56.2 758.3 56.2 510.2S258.1 60.3 506.1 60.3 956 262.2 956 510.2 754.2 960.1 506.1 960.1z m0-848.5c-219.8 0-398.6 178.8-398.6 398.6s178.8 398.6 398.6 398.6S904.8 730 904.8 510.2 725.9 111.6 506.1 111.6z" fill="#ffffff" p-id="1652" data-spm-anchor-id="a313x.7781069.0.i16" class="selected"></path><path d="M414.3 677.3c-14.1 0-25.6-11.5-25.6-25.6V381.1c0-14.1 11.5-25.6 25.6-25.6 14.1 0 25.6 11.5 25.6 25.6v270.6c0.1 14.1-11.4 25.6-25.6 25.6zM593.7 677.3c-14.1 0-25.6-11.5-25.6-25.6V381.1c0-14.1 11.5-25.6 25.6-25.6 14.1 0 25.6 11.5 25.6 25.6v270.6c0 14.1-11.5 25.6-25.6 25.6z" fill="#ffffff" p-id="1653" data-spm-anchor-id="a313x.7781069.0.i18" class="selected"></path></svg>