<svg t="1609813886331" class="icon" viewBox="0 0 1024 1024" version="1.1" xmlns="http://www.w3.org/2000/svg" p-id="1391" data-spm-anchor-id="a313x.7781069.0.i10" width="128" height="128"><path d="M390.4 660.7c-4.6 0-9.3-1.3-13.3-3.8-7.5-4.6-12.1-12.9-12.1-21.7V357.6c0-8.9 4.6-17.2 12.3-21.8 7.6-4.6 17.1-4.9 25-0.8l269.9 141.1c8.5 4.4 13.7 13.2 13.7 22.7-0.1 9.5-5.5 18.2-14 22.5L401.9 658c-3.7 1.8-7.6 2.7-11.5 2.7z m25.4-261v194.2l188.8-95.5-188.8-98.7z" fill="#ffffff" p-id="1392" data-spm-anchor-id="a313x.7781069.0.i12" class="selected"></path><path d="M511 956.1c-246.5 0-447-200.5-447-447S264.5 62 511 62s447 200.5 447 447-200.5 447.1-447 447.1z m0-843.2c-218.4 0-396.1 177.7-396.1 396.1S292.6 905.1 511 905.1 907.1 727.4 907.1 509 729.4 112.9 511 112.9z" fill="#ffffff" p-id="1393" data-spm-anchor-id="a313x.7781069.0.i11" class="selected"></path></svg>