<svg t="1609813865927" class="icon" viewBox="0 0 1024 1024" version="1.1" xmlns="http://www.w3.org/2000/svg" p-id="1076" width="128" height="128"><path d="M510.7 960.7c-247.1 0-448.1-201-448.1-448.1s201-448.1 448.1-448.1 448.1 201 448.1 448.1-201 448.1-448.1 448.1z m0-845.2c-219 0-397.1 178.1-397.1 397.1s178.1 397.1 397.1 397.1 397.1-178.1 397.1-397.1-178.2-397.1-397.1-397.1z" fill="#ffffff" p-id="1077" data-spm-anchor-id="a313x.7781069.0.i5" class="selected"></path><path d="M488.8 530c-6.6 0-13.2-2.6-18.2-7.7-9.9-10.1-9.7-26.2 0.4-36.1L610.1 350c10-9.9 26.2-9.7 36.1 0.4 9.9 10.1 9.7 26.2-0.4 36.1L506.7 522.8c-5 4.8-11.4 7.2-17.9 7.2z" fill="#ffffff" p-id="1078" data-spm-anchor-id="a313x.7781069.0.i7" class="selected"></path><path d="M623.7 669.1c-6.7 0-13.3-2.6-18.3-7.7L470.5 522.3c-9.8-10.1-9.6-26.3 0.5-36.1s26.3-9.6 36.1 0.5L642 625.9c9.8 10.1 9.6 26.3-0.5 36.1-5 4.7-11.4 7.1-17.8 7.1zM400.3 667.7c-14.1 0-25.5-11.4-25.5-25.5V369.6c0-14.1 11.4-25.5 25.5-25.5s25.5 11.4 25.5 25.5v272.6c0 14.1-11.4 25.5-25.5 25.5z" fill="#ffffff" p-id="1079" data-spm-anchor-id="a313x.7781069.0.i6" class="selected"></path></svg> 