<svg t="1609818440983" class="icon" viewBox="0 0 1024 1024" version="1.1" xmlns="http://www.w3.org/2000/svg" p-id="23744" width="128" height="128"><path d="M237.456 198.932c-36.11 0-71.44-2.536-71.44 34.01v508.212c0 36.546 32.34 60.042 68.451 60.042h504.515c36.084 0 51.038-27.589 51.038-64.135V608.81h101.492v220.602c0 36.542-29.277 66.156-65.387 66.156H128.882c-36.085 0-65.36-29.614-65.36-66.156V167.666c0-36.552 29.275-66.183 65.36-66.183h359.88v97.444l-251.306 0.005z m-6.965 423.04s26.273-350.223 446.338-347.195V101.483l280.038 261.164-280.038 261.169V451.723c0-0.004-265.462-45.455-446.338 170.245v0.004z m0 0" p-id="23745" fill="#8a8a8a"></path></svg>