<svg t="1609818370074" class="icon" viewBox="0 0 1170 1024" version="1.1" xmlns="http://www.w3.org/2000/svg" p-id="19699" width="128" height="128"><path d="M170.642286 333.897143H73.142857a73.142857 73.142857 0 0 0-73.142857 73.142857V601.965714a73.142857 73.142857 0 0 0 73.142857 73.142857h97.499429l372.589714 260.827429A73.142857 73.142857 0 0 0 658.285714 876.032V133.12a73.142857 73.142857 0 0 0-115.053714-59.977143L170.642286 333.897143zM743.643429 0v86.381714c194.121143 39.497143 341.284571 212.260571 341.284571 418.157715 0 205.897143-147.163429 378.660571-341.284571 418.157714v86.308571A511.561143 511.561143 0 0 0 1170.285714 504.612571 511.561143 511.561143 0 0 0 743.643429 0z m0 757.321143V669.842286a170.569143 170.569143 0 0 0 128-165.302857 170.569143 170.569143 0 0 0-128-165.302858V251.757714a256.804571 256.804571 0 0 1 213.284571 252.781715 256.804571 256.804571 0 0 1-213.284571 252.781714z" p-id="19700" fill="#8a8a8a"></path></svg>