<svg t="1609818334544" class="icon" viewBox="0 0 1024 1024" version="1.1" xmlns="http://www.w3.org/2000/svg" p-id="18895" width="128" height="128"><path d="M563.717 408.566v310.303H512V512h-51.717v-51.717H512v-51.717h51.717z m206.869-51.718H356.848a206.869 206.869 0 0 0 0 413.738h310.304A206.869 206.869 0 0 0 874.02 563.717V512h98.263a340.247 340.247 0 0 1 5.172 51.717A310.303 310.303 0 0 1 667.152 874.02H356.848a310.303 310.303 0 0 1 0-620.606h413.738V149.98L977.455 305.13l-206.87 155.152V356.848z" p-id="18896" fill="#8a8a8a"></path></svg>